<?xml version="1.0" ?><!DOCTYPE svg  PUBLIC '-//W3C//DTD SVG 1.1//EN'  'http://www.w3.org/Graphics/SVG/1.1/DTD/svg11.dtd'><svg enable-background="new 0 0 24 24" height="24px" id="Layer_1" version="1.1" viewBox="0 0 24 24" width="24px" xml:space="preserve" xmlns="http://www.w3.org/2000/svg" xmlns:xlink="http://www.w3.org/1999/xlink"><path d="M22.2,9H18V7h4.2c1.1,0,2-0.9,2-2s-0.9-2-2-2H18V0.5C18,0,17.8,0,17.2,0h-5C8.1,0,4.8,3,4.3,7H4.2C2,7,0,8.3,0,10.5v9  C0,21.7,2,24,4.2,24h9c0.6,0,1-0.4,1-1s-0.4-1-1-1h-9C3.1,22,2,20.6,2,19.5v-9C2,9.4,3.1,9,4.2,9h0.1c0.5,4,3.9,7,7.9,7h5  c0.6,0,0.8-0.9,0.8-1.5V13h4.2c1.1,0,2-0.9,2-2S23.3,9,22.2,9z M18,4h4.2c0.6,0,1,0.4,1,1s-0.4,1-1,1H18V4z M16,14h-3.8  c-3.3,0-6-2.7-6-6s2.7-6,6-6H16V14z M22.2,12H18v-2h4.2c0.6,0,1,0.4,1,1S22.8,12,22.2,12z"/></svg>